<?xml version="1.0" standalone="no"?>
<!DOCTYPE svg PUBLIC "-//W3C//DTD SVG 20010904//EN"
 "http://www.w3.org/TR/2001/REC-SVG-20010904/DTD/svg10.dtd">
<svg version="1.0" xmlns="http://www.w3.org/2000/svg"
 width="270.000000pt" height="270.000000pt" viewBox="0 0 270.000000 270.000000"
 preserveAspectRatio="xMidYMid meet">
<metadata>
Created by potrace 1.14, written by Peter Selinger 2001-2017
</metadata>
<g transform="translate(0.000000,270.000000) scale(0.100000,-0.100000)"
fill="#000000" stroke="none">
<path d="M880 2136 c-276 -99 -456 -169 -458 -177 -3 -15 135 -1220 140 -1224
2 -1 180 -100 396 -219 l393 -217 87 47 c98 54 696 385 699 388 6 5 144 1229
139 1233 -6 6 -925 333 -934 332 -4 0 -212 -74 -462 -163z m1010 -471 l0 -45
-540 0 -540 0 0 45 0 45 540 0 540 0 0 -45z m0 -315 l0 -50 -540 0 -540 0 0
50 0 50 540 0 540 0 0 -50z m0 -315 l0 -45 -540 0 -540 0 0 45 0 45 540 0 540
0 0 -45z"/>
</g>
</svg>
