<svg width="0" height="0" display="none" xmlns="http://www.w3.org/2000/svg">
  <symbol fill="currentColor" viewBox="0 0 24 24" id="menu">
    <path fill="none" d="M0 0h24v24H0V0z"></path>
    <path d="M4 18h16c.55 0 1-.45 1-1s-.45-1-1-1H4c-.55 0-1 .45-1 1s.45 1 1 1zm0-5h16c.55 0 1-.45 1-1s-.45-1-1-1H4c-.55 0-1 .45-1 1s.45 1 1 1zM3 7c0 .55.45 1 1 1h16c.55 0 1-.45 1-1s-.45-1-1-1H4c-.55 0-1 .45-1 1z"></path>
  </symbol>
  <symbol width="24" height="24" fill="currentColor" viewBox="0 0 24 24" id="menu-open"><path fill="none" d="M0 0h24v24H0V0z"/><path d="M4 18h11c.55 0 1-.45 1-1s-.45-1-1-1H4c-.55 0-1 .45-1 1s.45 1 1 1zm0-5h8c.55 0 1-.45 1-1s-.45-1-1-1H4c-.55 0-1 .45-1 1s.45 1 1 1zM3 7c0 .55.45 1 1 1h11c.55 0 1-.45 1-1s-.45-1-1-1H4c-.55 0-1 .45-1 1zm17.3 7.88L17.42 12l2.88-2.88a.996.996 0 1 0-1.41-1.41L15.3 11.3a.996.996 0 0 0 0 1.41l3.59 3.59c.39.39 1.02.39 1.41 0 .38-.39.39-1.03 0-1.42z"/><path fill="none" d="M0 0h24v24H0V0z"/></symbol>
<symbol id="shopping-cart" fill="currentColor" height="24" viewBox="0 -960 960 960" width="24"><path d="M280-80q-33 0-56.5-23.5T200-160q0-33 23.5-56.5T280-240q33 0 56.5 23.5T360-160q0 33-23.5 56.5T280-80Zm400 0q-33 0-56.5-23.5T600-160q0-33 23.5-56.5T680-240q33 0 56.5 23.5T760-160q0 33-23.5 56.5T680-80ZM246-720l96 200h280l110-200H246Zm-38-80h590q23 0 35 20.5t1 41.5L692-482q-11 20-29.5 31T622-440H324l-44 80h480v80H280q-45 0-68-39.5t-2-78.5l54-98-144-304H40v-80h130l38 80Zm134 280h280-280Z"/></symbol>
<symbol id="brightness-medium" fill="currentColor" height="24" viewBox="0 -960 960 960" width="24"><path d="M480-28 346-160H160v-186L28-480l132-134v-186h186l134-132 134 132h186v186l132 134-132 134v186H614L480-28Zm0-212q100 0 170-70t70-170q0-100-70-170t-170-70v480Zm0 100 100-100h140v-140l100-100-100-100v-140H580L480-820 380-720H240v140L140-480l100 100v140h140l100 100Zm0-340Z"/></symbol>
<symbol id="goose" fill="currentColor" width="24" height="24" viewBox="0 0 512 512"><path fill="currentColor" d="M370.019 18.023c-2.843-.035-5.859.197-9.075.73-81.664 13.54-38.657 142.295-36.095 217.397-84.163-16.327-168.007 121.048-289.118 152.787 58.086 52.473 206.05 89.6 331.739 11.85 39.804-24.622 45.26-92.014 34.343-165.049-6.703-44.845-71.755-133.176-10.269-141.266l.611-.504c12.884-10.608 16.606-23.842 22.522-37.699l1.699-3.976c-11.688-16.016-23.17-33.986-46.357-34.27zm5.08 19.625a9 9 0 0 1 9 9 9 9 0 0 1-9 9 9 9 0 0 1-9-9 9 9 0 0 1 9-9zm52.703 34.172c-3.28 8.167-7.411 17.45-14.612 26.293 21.035 7.63 41.929 3.078 63.079-.863-15.515-9.272-32.003-18.195-48.467-25.43zm-89.608 181.053c19.109 25.924 21.374 53.965 11.637 78.183-9.737 24.219-30.345 44.797-55.67 60.49-50.65 31.389-121.288 44.45-170.553 17.11l8.735-15.738c40.364 22.4 106.342 11.833 152.338-16.67 22.997-14.252 40.72-32.684 48.449-51.906 7.729-19.223 6.596-39.053-9.426-60.79l14.49-10.68zM273.28 456.322a332.68 332.68 0 0 1-19.095 3.232l-3.508 16.426h-13.084l3.508-14.842a400.208 400.208 0 0 1-18.852 1.506l-7.408 31.336h95.79v-18h-41.548l4.197-19.658z"/></symbol>
<symbol id="fact-check" height="24" viewBox="0 -960 960 960" width="24"><path d="M160-120q-33 0-56.5-23.5T80-200v-560q0-33 23.5-56.5T160-840h640q33 0 56.5 23.5T880-760v560q0 33-23.5 56.5T800-120H160Zm0-80h640v-560H160v560Zm40-80h200v-80H200v80Zm382-80 198-198-57-57-141 142-57-57-56 57 113 113Zm-382-80h200v-80H200v80Zm0-160h200v-80H200v80Zm-40 400v-560 560Z"/></symbol>
<symbol id="playlist-add-check-circle" height="24" viewBox="0 -960 960 960" width="24"><path d="m562-225 199-199-57-56-142 142-56-57-57 57 113 113ZM280-360h120v-80H280v80Zm0-120h280v-80H280v80Zm0-120h280v-80H280v80ZM480-80q-83 0-156-31.5T197-197q-54-54-85.5-127T80-480q0-83 31.5-156T197-763q54-54 127-85.5T480-880q83 0 156 31.5T763-763q54 54 85.5 127T880-480q0 83-31.5 156T763-197q-54 54-127 85.5T480-80Zm0-80q134 0 227-93t93-227q0-134-93-227t-227-93q-134 0-227 93t-93 227q0 134 93 227t227 93Zm0-320Z"/></symbol>
<symbol id="table-rows" height="24" viewBox="0 -960 960 960" width="24"><path d="M760-200v-120H200v120h560Zm0-200v-160H200v160h560Zm0-240v-120H200v120h560ZM200-120q-33 0-56.5-23.5T120-200v-560q0-33 23.5-56.5T200-840h560q33 0 56.5 23.5T840-760v560q0 33-23.5 56.5T760-120H200Z"/></symbol>
<symbol id="view-column" height="24" viewBox="0 -960 960 960" width="24"><path d="M120-280v-400q0-33 23.5-56.5T200-760h559q33 0 56.5 23.5T839-680v400q0 33-23.5 56.5T759-200H200q-33 0-56.5-23.5T120-280Zm80 0h133v-400H200v400Zm213 0h133v-400H413v400Zm213 0h133v-400H626v400Z"/></symbol>
<symbol id="info" height="24" viewBox="0 -960 960 960" width="24"><path d="M480-280q17 0 28.5-11.5T520-320v-160q0-17-11.5-28.5T480-520q-17 0-28.5 11.5T440-480v160q0 17 11.5 28.5T480-280Zm0-320q17 0 28.5-11.5T520-640q0-17-11.5-28.5T480-680q-17 0-28.5 11.5T440-640q0 17 11.5 28.5T480-600Zm0 520q-83 0-156-31.5T197-197q-54-54-85.5-127T80-480q0-83 31.5-156T197-763q54-54 127-85.5T480-880q83 0 156 31.5T763-763q54 54 85.5 127T880-480q0 83-31.5 156T763-197q-54 54-127 85.5T480-80Zm0-80q134 0 227-93t93-227q0-134-93-227t-227-93q-134 0-227 93t-93 227q0 134 93 227t227 93Zm0-320Z"/></symbol>
</svg>
